# xmcd
#
# Track frame offsets:
#	150
#	33961
#	65444
#	103287
#	136748
#	166369
#	190446
#	231243
#	249844
#	278380
#
# Disc length: 4000 seconds
#
# Revision: 0
# Processed by: cddbd v1.5.1PL0 Copyright (c) Steve Scherf et al.
# Submitted via: dBpowerAMP V4.0
#
DISCID=820f9e0a
DTITLE=Ben Harper - Live studio 104
DYEAR=1900
DGENRE=
TTITLE0=She's Only Happy In The Sun
TTITLE1=Excuse Me Mr.
TTITLE2=Brown Eyed Blues
TTITLE3=Temporary Remedy 
TTITLE4=Gold To Me 
TTITLE5=Please Me Like You Want To
TTITLE6=The Woman In You
TTITLE7=Show Me A Little Shame
TTITLE8=Steal My Kisses
TTITLE9=Diamonds On The Inside
EXTD=
EXTT0=
EXTT1=
EXTT2=
EXTT3=
EXTT4=
EXTT5=
EXTT6=
EXTT7=
EXTT8=
EXTT9=
PLAYORDER=
